<?xml version="1.0" encoding="UTF-8" standalone="no"?>
<svg
   xmlns:dc="http://purl.org/dc/elements/1.1/"
   xmlns:cc="http://creativecommons.org/ns#"
   xmlns:rdf="http://www.w3.org/1999/02/22-rdf-syntax-ns#"
   xmlns:svg="http://www.w3.org/2000/svg"
   xmlns="http://www.w3.org/2000/svg"
   xmlns:xlink="http://www.w3.org/1999/xlink"
   xmlns:sodipodi="http://sodipodi.sourceforge.net/DTD/sodipodi-0.dtd"
   xmlns:inkscape="http://www.inkscape.org/namespaces/inkscape"
   version="1.1"
   id="Feather"
   x="0px"
   y="0px"
   width="697.87469"
   height="273.89026"
   viewBox="0 0 48915.966 33914.783"
   enable-background="new 0 0 2392.5 4226.6"
   xml:space="preserve"
   inkscape:version="0.92.1 r15371"
   sodipodi:docname="Apache-NetBeans-9.0-IDE-alt-2.svg"><title
     id="title3428">Apache NetBeans IDE 9.0</title><metadata
     id="metadata145"><rdf:RDF><cc:Work
         rdf:about=""><dc:format>image/svg+xml</dc:format><dc:type
           rdf:resource="http://purl.org/dc/dcmitype/StillImage" /><dc:title>Apache NetBeans IDE 9.0</dc:title><dc:creator><cc:Agent><dc:title>Siddhesh Rane</dc:title></cc:Agent></dc:creator></cc:Work></rdf:RDF></metadata><defs
     id="defs143"><linearGradient
       gradientTransform="matrix(3.390986,-7.2722449,7.2722449,3.390986,75628.87,-57413.528)"
       y2="1047.6898"
       x2="-6533.1782"
       y1="1047.6898"
       x1="-9071.207"
       gradientUnits="userSpaceOnUse"
       id="SVGID_3_"><stop
         id="stop4468"
         style="stop-color:#282662"
         offset="0" /><stop
         id="stop4470"
         style="stop-color:#662E8D"
         offset="9.548390e-02" /><stop
         id="stop4472"
         style="stop-color:#9F2064"
         offset="0.7882" /><stop
         id="stop4474"
         style="stop-color:#CD2032"
         offset="0.9487" /></linearGradient><linearGradient
       inkscape:collect="always"
       xlink:href="#SVGID_2_"
       id="linearGradient4434"
       x1="26048.529"
       y1="129657.88"
       x2="35103.91"
       y2="26867.277"
       gradientUnits="userSpaceOnUse"
       gradientTransform="matrix(2.4752334,0,0,0.28597904,-26822.503,-4182.1007)" /><linearGradient
       inkscape:collect="always"
       xlink:href="#SVGID_4_"
       id="linearGradient4438"
       gradientUnits="userSpaceOnUse"
       gradientTransform="matrix(2.217151,0,0,1.0733211,-22037.796,-17907.89)"
       x1="26743.506"
       y1="49214.715"
       x2="38452.52"
       y2="15373.614" /><linearGradient
       inkscape:collect="always"
       xlink:href="#linearGradient4476"
       id="linearGradient4446"
       gradientUnits="userSpaceOnUse"
       gradientTransform="matrix(2.4230511,0,0,0.32866454,-23520.924,13111.307)"
       x1="29614.121"
       y1="47974.57"
       x2="31941.887"
       y2="4171.2192" /></defs><sodipodi:namedview
     pagecolor="#ffffff"
     bordercolor="#666666"
     borderopacity="1"
     objecttolerance="10"
     gridtolerance="10"
     guidetolerance="10"
     inkscape:pageopacity="0"
     inkscape:pageshadow="2"
     inkscape:window-width="1858"
     inkscape:window-height="1177"
     id="namedview141"
     showgrid="false"
     fit-margin-top="0"
     fit-margin-left="0"
     fit-margin-right="0"
     fit-margin-bottom="0"
     inkscape:zoom="1.3761247"
     inkscape:cx="385.89773"
     inkscape:cy="126.93269"
     inkscape:window-x="-8"
     inkscape:window-y="-8"
     inkscape:window-maximized="1"
     inkscape:current-layer="layer1"
     inkscape:snap-bbox="true"
     inkscape:bbox-nodes="false"
     inkscape:bbox-paths="false"
     inkscape:object-nodes="true" /><linearGradient
     id="SVGID_1_"
     gradientUnits="userSpaceOnUse"
     x1="-5167.0962"
     y1="697.55487"
     x2="-4570.1162"
     y2="1395.619"
     gradientTransform="matrix(3.390986,-7.2722449,7.2722449,3.390986,75628.87,-57413.528)"><stop
       offset="0"
       style="stop-color:#F69923"
       id="stop4" /><stop
       offset="0.3123"
       style="stop-color:#F79A23"
       id="stop6" /><stop
       offset="0.8383"
       style="stop-color:#E97826"
       id="stop8" /></linearGradient><linearGradient
     id="SVGID_2_"
     gradientUnits="userSpaceOnUse"
     x1="-9585.3418"
     y1="620.50482"
     x2="-5326.209"
     y2="620.50482"
     gradientTransform="matrix(3.390986,-7.2722449,7.2722449,3.390986,75628.87,-57413.528)"><stop
       offset="0.3233"
       style="stop-color:#9E2064"
       id="stop29" /><stop
       offset="0.6302"
       style="stop-color:#C92037"
       id="stop31" /><stop
       offset="0.7514"
       style="stop-color:#CD2335"
       id="stop33" /><stop
       offset="1"
       style="stop-color:#E97826"
       id="stop35" /></linearGradient><linearGradient
     id="linearGradient4476"
     gradientUnits="userSpaceOnUse"
     x1="-9071.207"
     y1="1047.6898"
     x2="-6533.1782"
     y2="1047.6898"
     gradientTransform="matrix(3.390986,-7.2722449,7.2722449,3.390986,75628.87,-57413.528)"><stop
       offset="0"
       style="stop-color:#282662"
       id="stop40" /><stop
       offset="0.0954839"
       style="stop-color:#662E8D"
       id="stop42" /><stop
       offset="0.7882"
       style="stop-color:#9F2064"
       id="stop44" /><stop
       offset="0.9487"
       style="stop-color:#CD2032"
       id="stop46" /></linearGradient><linearGradient
     id="SVGID_4_"
     gradientUnits="userSpaceOnUse"
     x1="-9346.126"
     y1="580.81702"
     x2="-5086.9941"
     y2="580.81702"
     gradientTransform="matrix(3.390986,-7.2722449,7.2722449,3.390986,75628.87,-57413.528)"><stop
       offset="0.3233"
       style="stop-color:#9E2064"
       id="stop51" /><stop
       offset="0.6302"
       style="stop-color:#C92037"
       id="stop53" /><stop
       offset="0.7514"
       style="stop-color:#CD2335"
       id="stop55" /><stop
       offset="1"
       style="stop-color:#E97826"
       id="stop57" /></linearGradient><linearGradient
     id="SVGID_5_"
     gradientUnits="userSpaceOnUse"
     x1="-9035.5029"
     y1="638.4408"
     x2="-6797.2012"
     y2="638.4408"
     gradientTransform="matrix(3.390986,-7.2722449,7.2722449,3.390986,75628.87,-57413.528)"><stop
       offset="0"
       style="stop-color:#282662"
       id="stop62" /><stop
       offset="9.548390e-02"
       style="stop-color:#662E8D"
       id="stop64" /><stop
       offset="0.7882"
       style="stop-color:#9F2064"
       id="stop66" /><stop
       offset="0.9487"
       style="stop-color:#CD2032"
       id="stop68" /></linearGradient><linearGradient
     id="SVGID_6_"
     gradientUnits="userSpaceOnUse"
     x1="-9346.126"
     y1="1021.6218"
     x2="-5086.9941"
     y2="1021.6218"
     gradientTransform="matrix(3.390986,-7.2722449,7.2722449,3.390986,75628.87,-57413.528)"><stop
       offset="0.3233"
       style="stop-color:#9E2064"
       id="stop73" /><stop
       offset="0.6302"
       style="stop-color:#C92037"
       id="stop75" /><stop
       offset="0.7514"
       style="stop-color:#CD2335"
       id="stop77" /><stop
       offset="1"
       style="stop-color:#E97826"
       id="stop79" /></linearGradient><linearGradient
     id="SVGID_7_"
     gradientUnits="userSpaceOnUse"
     x1="-9610.334"
     y1="999.73297"
     x2="-5351.2017"
     y2="999.73297"
     gradientTransform="matrix(3.390986,-7.2722449,7.2722449,3.390986,75628.87,-57413.528)"><stop
       offset="0.3233"
       style="stop-color:#9E2064"
       id="stop84" /><stop
       offset="0.6302"
       style="stop-color:#C92037"
       id="stop86" /><stop
       offset="0.7514"
       style="stop-color:#CD2335"
       id="stop88" /><stop
       offset="1"
       style="stop-color:#E97826"
       id="stop90" /></linearGradient><linearGradient
     id="SVGID_8_"
     gradientUnits="userSpaceOnUse"
     x1="-9346.126"
     y1="1152.7261"
     x2="-5086.9941"
     y2="1152.7261"
     gradientTransform="matrix(3.390986,-7.2722449,7.2722449,3.390986,75628.87,-57413.528)"><stop
       offset="0.3233"
       style="stop-color:#9E2064"
       id="stop99" /><stop
       offset="0.6302"
       style="stop-color:#C92037"
       id="stop101" /><stop
       offset="0.7514"
       style="stop-color:#CD2335"
       id="stop103" /><stop
       offset="1"
       style="stop-color:#E97826"
       id="stop105" /></linearGradient><linearGradient
     id="SVGID_9_"
     gradientUnits="userSpaceOnUse"
     x1="-9346.126"
     y1="1137.7247"
     x2="-5086.9941"
     y2="1137.7247"
     gradientTransform="matrix(3.390986,-7.2722449,7.2722449,3.390986,75628.87,-57413.528)"><stop
       offset="0.3233"
       style="stop-color:#9E2064"
       id="stop114" /><stop
       offset="0.6302"
       style="stop-color:#C92037"
       id="stop116" /><stop
       offset="0.7514"
       style="stop-color:#CD2335"
       id="stop118" /><stop
       offset="1"
       style="stop-color:#E97826"
       id="stop120" /></linearGradient><linearGradient
     id="SVGID_10_"
     gradientUnits="userSpaceOnUse"
     x1="-6953.4072"
     y1="1134.7161"
     x2="-6011.9995"
     y2="1134.7161"
     gradientTransform="matrix(3.390986,-7.2722449,7.2722449,3.390986,75628.87,-57413.528)"><stop
       offset="0.3233"
       style="stop-color:#9E2064"
       id="stop129" /><stop
       offset="0.6302"
       style="stop-color:#C92037"
       id="stop131" /><stop
       offset="0.7514"
       style="stop-color:#CD2335"
       id="stop133" /><stop
       offset="1"
       style="stop-color:#E97826"
       id="stop135" /></linearGradient><g
     inkscape:groupmode="layer"
     id="layer3"
     inkscape:label="rect"
     style="display:inline"
     sodipodi:insensitive="true"><path
       style="color:#000000;clip-rule:nonzero;display:inline;overflow:visible;visibility:visible;opacity:1;isolation:auto;mix-blend-mode:normal;color-interpolation:sRGB;color-interpolation-filters:linearRGB;solid-color:#000000;solid-opacity:1;fill:url(#linearGradient4434);fill-opacity:1;fill-rule:nonzero;stroke:none;stroke-width:132.08123779;stroke-linecap:butt;stroke-linejoin:miter;stroke-miterlimit:4;stroke-dasharray:none;stroke-dashoffset:0;stroke-opacity:1;color-rendering:auto;image-rendering:auto;shape-rendering:auto;text-rendering:auto;enable-background:accumulate"
       d="m -11967.93,2832.1021 74343.41,-181.2013 -3776.022,5690.1027 -69158.904,-49.9824 z"
       id="rect4426"
       inkscape:connector-curvature="0"
       sodipodi:nodetypes="ccccc" /><path
       style="color:#000000;clip-rule:nonzero;display:inline;overflow:visible;visibility:visible;opacity:1;isolation:auto;mix-blend-mode:normal;color-interpolation:sRGB;color-interpolation-filters:linearRGB;solid-color:#000000;solid-opacity:1;fill:url(#linearGradient4438);fill-opacity:1;fill-rule:nonzero;stroke:none;stroke-width:132.08123779;stroke-linecap:butt;stroke-linejoin:miter;stroke-miterlimit:4;stroke-dasharray:none;stroke-dashoffset:0;stroke-opacity:1;color-rendering:auto;image-rendering:auto;shape-rendering:auto;text-rendering:auto;enable-background:accumulate"
       d="m -10559.446,8291.0211 68859.841,2.3728 -3152.544,12213.4801 -62832.0405,33.133 z"
       id="rect4436"
       inkscape:connector-curvature="0"
       sodipodi:nodetypes="ccccc" /><path
       style="color:#000000;clip-rule:nonzero;display:inline;overflow:visible;visibility:visible;opacity:1;isolation:auto;mix-blend-mode:normal;color-interpolation:sRGB;color-interpolation-filters:linearRGB;solid-color:#000000;solid-opacity:1;fill:url(#linearGradient4446);fill-opacity:1;fill-rule:nonzero;stroke:none;stroke-width:528.32495117;stroke-linecap:butt;stroke-linejoin:miter;stroke-miterlimit:4;stroke-dasharray:none;stroke-dashoffset:0;stroke-opacity:1;color-rendering:auto;image-rendering:auto;shape-rendering:auto;text-rendering:auto;enable-background:accumulate"
       d="m -7684.1895,20540.007 60867.9805,-298.85 104.277,5253.434 -59891.286,-40.554 z"
       id="rect4444"
       inkscape:connector-curvature="0"
       sodipodi:nodetypes="ccccc" /></g><g
     inkscape:groupmode="layer"
     id="layer2"
     inkscape:label="feather"
     transform="translate(-96.794331,20347.909)"
     style="display:inline"
     sodipodi:insensitive="true"><path
       d="m 64829.145,-20186.517 c -531.998,313.743 -1415.452,1202.813 -2470.621,2490.682 l 969.313,1829.496 c 680.443,-973.324 1371.319,-1848.754 2068.614,-2596.6 53.761,-59.379 81.844,-87.463 81.844,-87.463 -27.281,28.887 -54.563,58.576 -81.844,87.463 -225.479,248.747 -909.934,1047.145 -1942.637,2632.708 994.187,-49.749 2521.976,-252.759 3768.119,-466.2 370.714,-2076.638 -363.493,-3027.495 -363.493,-3027.495 0,0 -933.201,-1510.136 -2029.295,-862.591 z"
       id="path10"
       inkscape:connector-curvature="0"
       style="fill:url(#SVGID_1_)" /><path
       d="m 63188.217,-9750.3677 c 7.222,-1.6047 14.442,-2.4071 21.664,-4.0121 l -139.62,15.246 c -8.825,4.0118 -16.047,8.0239 -24.872,11.2336 48.144,-7.2218 95.485,-15.2457 142.828,-22.4675 z"
       id="path12"
       inkscape:connector-curvature="0"
       style="fill:none" /><path
       d="m 62198.845,-6473.3239 c -79.44,17.6531 -160.483,31.294 -242.327,43.3303 81.844,-12.0363 162.887,-26.4796 242.327,-43.3303 z"
       id="path14"
       inkscape:connector-curvature="0"
       style="fill:none" /><path
       d="m 55474.646,877.55709 c 10.433,-27.28194 20.863,-54.56388 30.492,-81.84583 213.441,-563.29214 424.475,-1110.53597 633.904,-1644.13883 235.105,-598.59803 467.002,-1177.93823 696.493,-1739.62563 241.524,-592.1788 479.839,-1164.2972 714.947,-1717.1579 246.339,-580.1428 489.471,-1138.6203 727.787,-1676.2352 194.183,-437.3137 385.155,-860.9864 573.721,-1271.0179 62.589,-136.41 125.178,-272.0173 187.765,-406.0197 123.57,-265.5979 246.339,-526.3813 366.702,-780.7453 111.534,-235.1062 222.268,-464.5957 332.198,-690.073 36.109,-75.4264 73.019,-149.2483 109.128,-223.8723 5.617,-12.0363 12.035,-24.0723 17.652,-36.1085 l -118.757,12.8386 -94.683,-186.1592 c -8.828,18.4555 -18.457,36.1085 -28.086,54.5639 -170.109,337.8146 -338.616,678.8391 -505.518,1023.0731 -96.289,198.9978 -192.578,398.7979 -288.065,599.4006 -264.796,556.0704 -525.58,1116.9552 -781.548,1681.8521 -259.179,570.5137 -512.74,1144.2371 -761.486,1718.7628 -244.737,564.0946 -483.854,1128.9914 -718.962,1692.2833 -234.304,562.4898 -462.99,1123.3746 -686.862,1680.2473 -233.502,581.74735 -460.584,1157.878099 -680.443,1727.58942 -49.75,128.38556 -99.499,256.77136 -148.448,385.15688 -176.53,459.7812 -348.245,913.143 -515.948,1360.8879 l 149.247,294.4846 133.201,-14.4433 c 4.814,-13.641 9.629,-27.282 14.442,-40.1206 215.85,-589.7715 429.291,-1164.2972 641.127,-1723.57731 z"
       id="path16"
       inkscape:connector-curvature="0"
       style="fill:none" /><path
       d="m 61894.73,-6420.3647 v 0 c 0.804,0 0.804,-0.8027 1.605,-0.8027 0,0 -0.801,0 -1.605,0.8027 z"
       id="path18"
       inkscape:connector-curvature="0"
       style="fill:none" /><path
       d="m 61573.766,-4822.7659 c -123.57,22.4675 -251.153,44.1326 -381.945,66.6001 -0.804,0 -1.605,0.8024 -2.409,0.8024 65.799,-9.6289 130.792,-19.2578 194.987,-30.4916 64.191,-11.2337 126.78,-23.2699 189.367,-36.9109 z"
       id="path20"
       inkscape:connector-curvature="0"
       style="fill:#be202e" /><path
       d="m 61573.766,-4822.7659 c -123.57,22.4675 -251.153,44.1326 -381.945,66.6001 -0.804,0 -1.605,0.8024 -2.409,0.8024 65.799,-9.6289 130.792,-19.2578 194.987,-30.4916 64.191,-11.2337 126.78,-23.2699 189.367,-36.9109 z"
       id="path22"
       inkscape:connector-curvature="0"
       style="opacity:0.35;fill:#be202e" /><path
       d="m 61897.94,-6421.9697 c 0,0 -0.801,0 -0.801,0.8023 -0.804,0 -0.804,0.8027 -1.605,0.8027 20.863,-2.4074 40.922,-6.4195 60.984,-8.8266 82.648,-12.0362 163.691,-26.4795 242.327,-43.3302 -98.698,16.0483 -198.999,33.7013 -300.905,50.5518 v 0 z"
       id="path24"
       inkscape:connector-curvature="0"
       style="fill:#be202e" /><path
       d="m 61897.94,-6421.9697 c 0,0 -0.801,0 -0.801,0.8023 -0.804,0 -0.804,0.8027 -1.605,0.8027 20.863,-2.4074 40.922,-6.4195 60.984,-8.8266 82.648,-12.0362 163.691,-26.4795 242.327,-43.3302 -98.698,16.0483 -198.999,33.7013 -300.905,50.5518 v 0 z"
       id="path26"
       inkscape:connector-curvature="0"
       style="opacity:0.35;fill:#be202e" /><path
       d="m 60470.453,-11139.34 c 294.484,-550.453 592.982,-1088.871 894.688,-1612.845 312.94,-544.034 629.892,-1072.02 950.052,-1580.748 18.457,-29.689 37.714,-60.181 56.171,-90.673 316.148,-500.704 635.507,-982.15 957.274,-1442.733 l -969.312,-1829.496 c -73.02,89.068 -146.039,179.74 -220.663,272.017 -279.238,348.246 -569.71,722.972 -867.404,1120.165 -335.409,447.745 -680.444,925.981 -1031.098,1427.488 -323.371,463.793 -651.557,949.251 -979.743,1451.56 -279.238,427.685 -560.083,868.208 -838.52,1319.965 -10.43,16.851 -20.86,33.702 -31.293,50.552 l 1261.39,2491.4844 c 269.608,-533.6024 542.428,-1059.9844 818.458,-1576.7364 z"
       id="path37"
       inkscape:connector-curvature="0"
       style="fill:url(#SVGID_2_)" /><path
       d="m 54725.195,2898.8287 c -166.902,458.9788 -334.605,925.9815 -503.111,1403.4158 -2.407,7.2215 -4.816,13.6409 -7.223,20.8625 -24.071,67.4025 -47.34,134.805 -71.414,202.2075 -113.14,321.7667 -211.835,611.4373 -437.314,1270.2163 371.517,169.3082 670.013,615.4476 952.461,1121.7696 -29.688,-523.9745 -247.14,-1016.6557 -658.779,-1397.7995 1831.904,82.6482 3410.246,-380.3425 4226.297,-1719.5655 73.02,-119.559 139.618,-244.7351 199.8,-378.7375 -370.713,470.2125 -830.496,670.0126 -1696.297,621.0655 -1.603,0.8024 -4.012,1.6047 -5.615,2.4074 1.603,-0.8027 4.012,-1.605 5.615,-2.4074 1274.229,-570.5137 1913.75,-1117.7575 2478.647,-2025.2837 134.003,-215.046 263.992,-450.1523 397.193,-710.9354 -1114.55,1144.2371 -2405.627,1470.0156 -3765.713,1222.8732 l -1019.863,111.5351 c -32.097,85.8579 -63.391,171.7158 -94.684,258.3761 z"
       id="path48"
       inkscape:connector-curvature="0"
       style="fill:url(#SVGID_3_)" /><path
       d="m 55201.025,614.36656 c 220.663,-569.711327 447.745,-1145.84208 680.443,-1727.58936 223.07,-556.873 452.558,-1116.9552 686.862,-1680.2473 234.304,-563.2922 474.225,-1127.3864 718.962,-1692.2833 248.746,-574.5258 503.111,-1148.2492 761.486,-1718.7631 255.968,-564.0943 516.752,-1125.7817 781.548,-1681.8521 95.487,-200.6025 191.776,-400.4026 288.065,-599.4003 166.902,-344.234 335.409,-685.2586 505.518,-1023.0734 8.828,-18.4554 18.457,-36.1085 28.086,-54.5639 l -1261.39,-2491.4838 c -20.863,33.701 -40.922,67.402 -61.785,101.104 -293.683,479.841 -586.561,970.916 -873.825,1472.422 -290.472,506.3213 -575.327,1022.2712 -853.764,1545.4428 -235.108,441.3257 -464.596,886.6633 -687.665,1336.0133 -44.937,91.4747 -89.07,181.3447 -133.202,272.017 -275.226,565.6993 -523.171,1112.1407 -747.846,1637.7194 -254.365,595.3886 -478.236,1164.2975 -674.025,1703.5172 -129.187,354.6652 -246.339,697.2945 -353.862,1026.2828 -88.265,280.8436 -172.519,562.4895 -251.956,842.5307 -188.569,660.3837 -350.655,1319.16267 -483.854,1975.53427 l 1267.808,2502.71793 c 167.703,-447.745 339.418,-901.1067 515.948,-1360.88793 48.949,-127.58319 98.698,-256.77136 148.448,-385.15691 z"
       id="path59"
       inkscape:connector-curvature="0"
       style="fill:url(#SVGID_4_)" /><path
       d="m 53251.97,-53.238913 c -158.878,800.805473 -272.018,1598.401513 -328.988,2391.182813 -1.605,28.0843 -4.816,55.3662 -6.421,83.4508 -395.588,-633.9044 -1454.769,-1252.5628 -1452.362,-1246.9457 758.278,1099.3021 1333.605,2190.58 1419.464,3261.7978 -406.019,83.4508 -962.091,-36.9108 -1604.82,-273.6218 670.011,615.4487 1173.122,785.5608 1368.911,831.2962 -615.448,38.5155 -1256.574,461.3879 -1902.514,948.4495 944.438,-385.1556 1707.529,-537.6152 2253.969,-414.0423 -866.602,2453.7696 -1735.612,5162.7056 -2604.623,8038.5466 266.401,-78.636 425.279,-257.576 514.345,-499.903 154.866,-520.764 1182.754,-3937.4282 2793.19,-8428.5184 45.738,-127.5825 92.277,-255.9683 138.819,-385.1562 12.837,-36.1085 26.477,-72.2169 39.317,-107.523 170.112,-471.0149 346.64,-951.6588 528.787,-1441.9314 41.726,-111.5351 83.452,-223.07 125.176,-335.4075 0.804,-2.4073 1.605,-4.8144 2.409,-6.4194 L 53270.426,-139.89919 c -5.617,28.08431 -12.839,56.971237 -18.456,86.660277 z"
       id="path70"
       inkscape:connector-curvature="0"
       style="fill:url(#SVGID_5_)" /><path
       d="m 59847.783,-9352.3722 c -36.109,73.8217 -72.218,148.446 -109.128,223.8726 -109.129,225.4771 -219.86,454.9665 -332.198,690.0727 -121.164,254.3643 -243.132,514.3451 -366.702,780.7454 -62.587,134.0026 -124.374,268.8073 -187.765,406.0196 -188.566,410.0315 -379.538,833.7043 -573.721,1271.018 -238.316,537.6149 -481.448,1096.0923 -727.787,1676.2352 -235.108,552.8606 -473.423,1124.9793 -714.947,1717.1581 -229.491,561.6872 -461.388,1141.8298 -696.493,1739.6254 -209.429,533.60285 -420.463,1080.84668 -633.904,1644.13883 -10.43,27.28194 -20.863,54.56388 -30.492,81.84583 -211.836,559.28004 -425.277,1133.80584 -640.323,1722.77494 -4.815,13.641 -9.629,27.2819 -14.444,40.1206 l 1019.863,-111.5352 c -20.059,-4.0118 -40.922,-6.4191 -60.983,-10.4312 1219.663,-151.6554 2840.533,-1063.1937 3888.481,-2188.17297 483.05,-518.35716 921.166,-1129.79376 1326.383,-1845.54373 301.706,-532.8005 584.959,-1123.3745 854.568,-1777.3388 235.909,-571.3163 462.189,-1189.9744 680.445,-1860.7896 -280.041,147.6436 -601.005,255.969 -954.87,331.3954 -61.785,12.8386 -125.176,25.6772 -189.367,36.911 -64.195,11.2337 -129.188,21.6649 -194.987,30.4914 v 0 0 c 0.804,0 1.605,-0.8023 2.409,-0.8023 1137.013,-437.3137 1854.369,-1282.2516 2375.934,-2316.5585 -299.297,203.8122 -785.557,471.0148 -1368.109,599.4003 -79.437,17.6531 -160.48,31.2941 -242.327,43.3303 -20.863,3.2097 -40.922,6.4192 -60.984,8.8265 v 0 0 c 0.804,0 0.804,-0.8023 1.605,-0.8023 0,0 0.804,0 0.804,-0.8027 v 0 c 394.785,-165.2963 727.784,-349.8508 1016.653,-568.1063 61.786,-46.5397 121.965,-94.6844 179.739,-145.2362 88.265,-76.2291 171.717,-156.4701 251.959,-240.7233 51.352,-53.7613 101.102,-109.1278 149.246,-166.9011 113.14,-134.805 219.058,-280.0413 318.558,-438.1161 30.491,-48.1447 60.18,-97.0918 89.87,-147.6436 37.714,-73.0193 73.821,-144.4339 109.128,-215.0461 158.876,-319.3591 285.657,-604.2148 386.761,-854.5669 50.551,-125.1759 94.684,-240.7231 132.398,-348.2461 15.246,-42.5277 29.691,-84.2529 43.331,-124.3735 40.119,-120.3616 73.02,-227.0821 98.696,-320.9641 38.515,-140.4223 61.785,-251.9573 74.624,-333.0003 v 0 0 c -38.515,30.492 -82.648,60.983 -132.397,90.672 -343.433,205.417 -932.403,391.5766 -1407.429,479.0392 l 936.414,-102.7086 -936.414,102.7086 c -7.222,1.605 -14.442,2.4074 -21.664,4.0121 -47.343,8.0242 -95.488,15.2457 -143.632,23.2699 8.827,-4.0121 16.047,-8.0242 24.875,-11.2336 l -3204.025,351.4555 c -5.617,11.2339 -11.234,22.4675 -17.652,34.5037 z"
       id="path81"
       inkscape:connector-curvature="0"
       style="fill:url(#SVGID_6_)" /><path
       d="m 63454.618,-15829.429 c -284.858,437.314 -596.193,934.006 -930.797,1496.496 -17.653,28.887 -35.305,59.378 -52.96,89.067 -288.867,487.063 -596.19,1021.469 -918.759,1607.228 -279.238,505.519 -569.71,1047.948 -871.419,1631.3 -263.19,507.926 -535.206,1047.146 -814.446,1617.6597 l 3204.024,-351.4555 c 933.204,-429.2892 1350.459,-817.6562 1755.676,-1379.3432 107.523,-154.866 215.848,-316.952 323.371,-484.656 328.987,-513.543 651.556,-1079.242 940.423,-1641.732 278.437,-543.232 523.975,-1081.649 712.541,-1567.107 119.558,-308.928 215.849,-596.191 282.448,-848.148 58.577,-222.268 104.312,-433.302 139.62,-634.707 -1247.749,212.639 -2775.537,416.452 -3769.722,465.398 z"
       id="path92"
       inkscape:connector-curvature="0"
       style="fill:url(#SVGID_7_)" /><path
       d="m 61384.399,-4785.855 c -64.195,11.2338 -129.188,21.6651 -194.987,30.4916 v 0 c 65.799,-8.8265 130.792,-19.2578 194.987,-30.4916 z"
       id="path94"
       inkscape:connector-curvature="0"
       style="fill:#be202e" /><path
       d="m 61384.399,-4785.855 c -64.195,11.2338 -129.188,21.6651 -194.987,30.4916 v 0 c 65.799,-8.8265 130.792,-19.2578 194.987,-30.4916 z"
       id="path96"
       inkscape:connector-curvature="0"
       style="opacity:0.35;fill:#be202e" /><path
       d="m 61384.399,-4785.855 c -64.195,11.2338 -129.188,21.6651 -194.987,30.4916 v 0 c 65.799,-8.8265 130.792,-19.2578 194.987,-30.4916 z"
       id="path107"
       inkscape:connector-curvature="0"
       style="fill:url(#SVGID_8_)" /><path
       d="m 61894.73,-6420.3647 c 20.863,-2.4074 40.925,-6.4195 60.984,-8.8266 -20.059,2.4071 -40.121,5.6168 -60.984,8.8266 z"
       id="path109"
       inkscape:connector-curvature="0"
       style="fill:#be202e" /><path
       d="m 61894.73,-6420.3647 c 20.863,-2.4074 40.925,-6.4195 60.984,-8.8266 -20.059,2.4071 -40.121,5.6168 -60.984,8.8266 z"
       id="path111"
       inkscape:connector-curvature="0"
       style="opacity:0.35;fill:#be202e" /><path
       d="m 61894.73,-6420.3647 c 20.863,-2.4074 40.925,-6.4195 60.984,-8.8266 -20.059,2.4071 -40.121,5.6168 -60.984,8.8266 z"
       id="path122"
       inkscape:connector-curvature="0"
       style="fill:url(#SVGID_9_)" /><path
       d="m 61897.139,-6421.1674 c 0,0 0.801,0 0.801,-0.8023 v 0 0 0 c 0,0 -0.801,0 -0.801,0.8023 z"
       id="path124"
       inkscape:connector-curvature="0"
       style="fill:#be202e" /><path
       d="m 61897.139,-6421.1674 c 0,0 0.801,0 0.801,-0.8023 v 0 0 0 c 0,0 -0.801,0 -0.801,0.8023 z"
       id="path126"
       inkscape:connector-curvature="0"
       style="opacity:0.35;fill:#be202e" /><path
       d="m 61897.139,-6421.1674 c 0,0 0.801,0 0.801,-0.8023 v 0 0 0 c 0,0 -0.801,0 -0.801,0.8023 z"
       id="path137"
       inkscape:connector-curvature="0"
       style="fill:url(#SVGID_10_)" /></g><g
     inkscape:groupmode="layer"
     id="layer1"
     inkscape:label="netbeans-text"
     transform="translate(-96.794331,20347.909)"
     style="display:inline"><text
       xml:space="preserve"
       style="font-style:normal;font-variant:normal;font-weight:normal;font-stretch:normal;font-size:10566.5px;line-height:0%;font-family:'Maven Pro';-inkscape-font-specification:'Maven Pro, Normal';font-variant-ligatures:normal;font-variant-caps:normal;font-variant-numeric:normal;font-feature-settings:normal;text-align:start;letter-spacing:0px;word-spacing:0px;writing-mode:lr-tb;text-anchor:start;fill:#000000;fill-opacity:1;stroke:none;stroke-width:1px;stroke-linecap:butt;stroke-linejoin:miter;stroke-opacity:1"
       x="-7225.5649"
       y="-3010.5757"
       id="text4273"><tspan
         sodipodi:role="line"
         id="tspan4275"
         x="-7225.5649"
         y="-3010.5757"
         style="font-style:normal;font-variant:normal;font-weight:normal;font-stretch:normal;font-size:10566.5px;line-height:1.25;font-family:'Maven Pro';-inkscape-font-specification:'Maven Pro, Normal';font-variant-ligatures:normal;font-variant-caps:normal;font-variant-numeric:normal;font-feature-settings:normal;text-align:start;writing-mode:lr-tb;text-anchor:start;fill:#ffffff">NetBeans</tspan></text>
<text
       xml:space="preserve"
       style="font-style:normal;font-variant:normal;font-weight:500;font-stretch:normal;font-size:10566.5px;line-height:0%;font-family:'Maven Pro';-inkscape-font-specification:'Maven Pro, Medium';font-variant-ligatures:normal;font-variant-caps:normal;font-variant-numeric:normal;font-feature-settings:normal;text-align:start;letter-spacing:0px;word-spacing:0px;writing-mode:lr-tb;text-anchor:start;display:inline;opacity:1;fill:#f4c6ca;fill-opacity:1;stroke:none;stroke-width:1px;stroke-linecap:butt;stroke-linejoin:miter;stroke-opacity:1"
       x="39990.066"
       y="-2629.4358"
       id="text15957"><tspan
         sodipodi:role="line"
         id="tspan15959"
         x="39990.066"
         y="-2629.4358"
         style="font-style:normal;font-variant:normal;font-weight:500;font-stretch:normal;font-size:10566.5px;line-height:1.25;font-family:'Maven Pro';-inkscape-font-specification:'Maven Pro, Medium';font-variant-ligatures:normal;font-variant-caps:normal;font-variant-numeric:normal;font-feature-settings:normal;text-align:start;writing-mode:lr-tb;text-anchor:start">IDE</tspan></text>
<text
       xml:space="preserve"
       style="font-style:normal;font-variant:normal;font-weight:normal;font-stretch:normal;font-size:5283.25px;line-height:0%;font-family:'Maven Pro';-inkscape-font-specification:'Maven Pro, Normal';font-variant-ligatures:normal;font-variant-caps:normal;font-variant-numeric:normal;font-feature-settings:normal;text-align:start;letter-spacing:0px;word-spacing:0px;writing-mode:lr-tb;text-anchor:start;display:inline;fill:#ffccaa;fill-opacity:1;stroke:none;stroke-width:1px;stroke-linecap:butt;stroke-linejoin:miter;stroke-opacity:1"
       x="43260.043"
       y="4182.1108"
       id="text5159"><tspan
         sodipodi:role="line"
         id="tspan5161"
         x="43260.043"
         y="4182.1108"
         style="font-style:normal;font-variant:normal;font-weight:normal;font-stretch:normal;font-size:5283.25px;line-height:1.25;font-family:'Maven Pro';-inkscape-font-specification:'Maven Pro, Normal';font-variant-ligatures:normal;font-variant-caps:normal;font-variant-numeric:normal;font-feature-settings:normal;text-align:start;writing-mode:lr-tb;text-anchor:start">9.0</tspan></text>
</g></svg>